#format: frame checksums
#version: 2
#hash: MD5
#tb 0: 1/15
#media_type 0: video
#codec_id 0: rawvideo
#dimensions 0: 320x180
#sar 0: 0/1
#stream#, dts,        pts, duration,     size, hash
0,          0,          0,        1,   172800, afdacfb471b1fe23a38496a551119aac
0,          1,          1,        1,   172800, cf7eba8338be436a6daedcb6af753dce
0,          2,          2,        1,   172800, 2201fec9aa64543e4dd786b1376eaa80
0,          3,          3,        1,   172800, ba17300cca382f5eaf8bea5727ecdd35
0,          4,          4,        1,   172800, 616caa77a4e78ea3a69bc9775a799995
0,          5,          5,        1,   172800, 278a9f99d85d2d046c6f93888532b6f6
0,          6,          6,        1,   172800, 409630f91fb0f178790bd12da4e0575a
0,          7,          7,        1,   172800, a1583dc81a30bad0a9f6ac5e296569ed
0,          8,          8,        1,   172800, 0cb7c422fd6e04a28e4faaa347c36247
0,          9,          9,        1,   172800, 92798e44e177fc5cfadd1de7de3012d4
0,         10,         10,        1,   172800, 529b63de488f5cebf822f5bc1cdda4c5
0,         11,         11,        1,   172800, 16e2280635a4e96084ef1d06594829c8
0,         12,         12,        1,   172800, 2047da9f5ec6e403556d60ecff093662
0,         13,         13,        1,   172800, f9e668e010e1f46da3b0f56751d64942
0,         14,         14,        1,   172800, de8c352ff87a813223678a430ce4f3c1
0,         15,         15,        1,   172800, 4669df8b80c3c06f44d431d954d7a92a
0,         16,         16,        1,   172800, dd536380635a316ff4a7e6f4edab75a3
0,         17,         17,        1,   172800, 65a37223b618e7cdcedf1543ef679299
0,         18,         18,        1,   172800, aab95055ca45e42c5bb203b59b61480f
0,         19,         19,        1,   172800, 0f9199f5c51144e68fd0da3d69e01842
0,         20,         20,        1,   172800, 264abf4038546658bf1b1a9b40c17011
0,         21,         21,        1,   172800, c6d2643db090095f4c4a28367565601e
0,         22,         22,        1,   172800, d158e4176dbc2fc3106c531eb390c9d3
0,         23,         23,        1,   172800, 80bacd352d0177dfc371230e3007a36b
0,         24,         24,        1,   172800, 8fe88b04ca7569413e12e20e757e8dfd
0,         25,         25,        1,   172800, 0ebbdf58e49ea42b421fc7e8c2b58825
0,         26,         26,        1,   172800, 0eb16952336bc1aba84875ba3bf0e717
0,         27,         27,        1,   172800, 5f0c35b5d5210e0ac79b9aab3bea7e75
0,         28,         28,        1,   172800, 16f6a6599c2d71437d24fe2f61de5d08
0,         29,         29,        1,   172800, 0b0b111c0308a435916f79be2d565659
0,         30,         30,        1,   172800, 74bdb11f1bcb7b7e23851258d5cbf78b
